# xmcd
#
# Track frame offsets: 
#        150
#        12499
#        24115
#        38590
#        52736
#        76482
#        87540
#        110188
#        137007
#
# Disc length: 2171 seconds
#
# Revision: 0
# Processed by: cddbd v1.5.2PL0 Copyright (c) Steve Scherf et al.
# Submitted via: ExactAudioCopy v0.99pb4
#
DISCID=68087909
DTITLE=Canned Heat - The New Age
DYEAR=1973
DGENRE=Blues
TTITLE0=Keep It Clean
TTITLE1=Harley Davidson Blues
TTITLE2=Don't Deceive Me
TTITLE3=You Can Run, But You Sure Can't Hide
TTITLE4=Lookin' For My Rainbow
TTITLE5=Rock And Roll Music
TTITLE6=Framed
TTITLE7=Election Blues
TTITLE8=So Long Wrong
EXTD=
EXTT0=
EXTT1=
EXTT2=
EXTT3=
EXTT4=
EXTT5=
EXTT6=
EXTT7=
EXTT8=
PLAYORDER=
